<svg version="1.1" xmlns="http://www.w3.org/2000/svg" xmlns:xlink="http://www.w3.org/1999/xlink" x="0px" y="0px"
	 viewBox="0 0 59 59" style="enable-background:new 0 0 59 59;" xml:space="preserve">
<g>
	<rect x="1.5" y="5" style="fill:#a9cfe0;" width="56" height="14"/>
	<polyline style="fill:#e0f7ff;" points="50.5,11 56.5,5 58.5,5 58.5,19 56.5,19 50.5,11"/>
	<polygon style="fill:#87bac9;" points="50.5,11 50.5,19 56.5,19 	"/>
	<polyline style="fill:#e0f7ff;" points="8.5,11 2.5,5 0.5,5 0.5,19 2.5,19 8.5,11"/>
	<polygon style="fill:#87bac9;" points="8.5,11 8.5,19 2.5,19"/>
	<path style="fill:#b8dcf0;" d="M54.758,59H4.242C2.175,59,0.5,57.325,0.5,55.258V19h58v36.258C58.5,57.325,56.825,59,54.758,59z"/>
	<circle style="fill:#3a6d72;" cx="17.5" cy="27" r="3"/>
	<circle style="fill:#3a6d72;" cx="41.5" cy="27" r="3"/>
	<path style="fill:#9ec6ce;" d="M29.5,46c-7.168,0-13-5.832-13-13v-6c0-0.553,0.447-1,1-1s1,0.447,1,1v6c0,6.065,4.935,11,11,11
		s11-4.935,11-11v-6c0-0.553,0.447-1,1-1s1,0.447,1,1v6C42.5,40.168,36.668,46,29.5,46z"/>
</g>
<g>
</g>
<g>
</g>
<g>
</g>
<g>
</g>
<g>
</g>
<g>
</g>
<g>
</g>
<g>
</g>
<g>
</g>
<g>
</g>
<g>
</g>
<g>
</g>
<g>
</g>
<g>
</g>
<g>
</g>
</svg>